<mxfile host="app.diagrams.net" modified="2020-08-10T06:49:19.431Z" agent="5.0 (Windows NT 10.0; Win64; x64) AppleWebKit/537.36 (KHTML, like Gecko) Chrome/84.0.4147.105 Safari/537.36 Edg/84.0.522.52" etag="zhmYHJsQ2XHjldaLO0lf" version="13.6.2" type="github">
  <diagram name="Page-1" id="13e1069c-82ec-6db2-03f1-153e76fe0fe0">
    <mxGraphModel dx="1422" dy="762" grid="1" gridSize="10" guides="1" tooltips="1" connect="1" arrows="1" fold="1" page="1" pageScale="1" pageWidth="1100" pageHeight="850" background="#ffffff" math="0" shadow="0">
      <root>
        <mxCell id="0" />
        <mxCell id="1" parent="0" />
        <mxCell id="ZDPEPP_IXGVOV3i8wKaN-5" value="일반회원" style="shape=umlActor;verticalLabelPosition=bottom;verticalAlign=top;html=1;outlineConnect=0;" parent="1" vertex="1">
          <mxGeometry x="40" y="25" width="30" height="60" as="geometry" />
        </mxCell>
        <mxCell id="ZDPEPP_IXGVOV3i8wKaN-7" value="비회원" style="shape=umlActor;verticalLabelPosition=bottom;verticalAlign=top;html=1;outlineConnect=0;" parent="1" vertex="1">
          <mxGeometry x="100" y="25" width="30" height="60" as="geometry" />
        </mxCell>
        <mxCell id="ZDPEPP_IXGVOV3i8wKaN-12" value="메인화면 접속" style="html=1;" parent="1" vertex="1">
          <mxGeometry x="160" y="50" width="110" height="50" as="geometry" />
        </mxCell>
        <mxCell id="ZDPEPP_IXGVOV3i8wKaN-13" value="해당 화면 출력" style="html=1;" parent="1" vertex="1">
          <mxGeometry x="220" y="370" width="110" height="50" as="geometry" />
        </mxCell>
        <mxCell id="ZDPEPP_IXGVOV3i8wKaN-17" value="" style="endArrow=classic;html=1;exitX=0.5;exitY=1;exitDx=0;exitDy=0;entryX=0.5;entryY=0;entryDx=0;entryDy=0;" parent="1" source="ZDPEPP_IXGVOV3i8wKaN-12" target="ZDPEPP_IXGVOV3i8wKaN-13" edge="1">
          <mxGeometry width="50" height="50" relative="1" as="geometry">
            <mxPoint x="80" y="120" as="sourcePoint" />
            <mxPoint x="140" y="150" as="targetPoint" />
          </mxGeometry>
        </mxCell>
        <mxCell id="ZDPEPP_IXGVOV3i8wKaN-18" value="회원 여부 판단" style="rounded=0;whiteSpace=wrap;html=1;" parent="1" vertex="1">
          <mxGeometry x="420" y="45" width="120" height="60" as="geometry" />
        </mxCell>
        <mxCell id="ZDPEPP_IXGVOV3i8wKaN-19" value="" style="endArrow=classic;html=1;exitX=1;exitY=0.5;exitDx=0;exitDy=0;entryX=0;entryY=0.5;entryDx=0;entryDy=0;" parent="1" source="ZDPEPP_IXGVOV3i8wKaN-12" target="ZDPEPP_IXGVOV3i8wKaN-18" edge="1">
          <mxGeometry width="50" height="50" relative="1" as="geometry">
            <mxPoint x="290" y="95" as="sourcePoint" />
            <mxPoint x="340" y="45" as="targetPoint" />
          </mxGeometry>
        </mxCell>
        <mxCell id="ZDPEPP_IXGVOV3i8wKaN-20" value="기념품 샵 메뉴 클릭" style="text;html=1;strokeColor=none;fillColor=none;align=center;verticalAlign=middle;whiteSpace=wrap;rounded=0;" parent="1" vertex="1">
          <mxGeometry x="280" y="40" width="130" height="20" as="geometry" />
        </mxCell>
        <mxCell id="ZDPEPP_IXGVOV3i8wKaN-21" value="전시,행사&lt;br&gt;메뉴 클릭,&lt;br&gt;&lt;br&gt;공지 사항&lt;br&gt;클릭," style="text;html=1;strokeColor=none;fillColor=none;align=center;verticalAlign=middle;whiteSpace=wrap;rounded=0;" parent="1" vertex="1">
          <mxGeometry x="180" y="275" width="70" height="90" as="geometry" />
        </mxCell>
        <mxCell id="ZDPEPP_IXGVOV3i8wKaN-22" value="" style="endArrow=classic;html=1;exitX=0.5;exitY=1;exitDx=0;exitDy=0;entryX=0.5;entryY=0;entryDx=0;entryDy=0;" parent="1" source="ZDPEPP_IXGVOV3i8wKaN-18" target="ZDPEPP_IXGVOV3i8wKaN-23" edge="1">
          <mxGeometry width="50" height="50" relative="1" as="geometry">
            <mxPoint x="370" y="230" as="sourcePoint" />
            <mxPoint x="480" y="160" as="targetPoint" />
            <Array as="points" />
          </mxGeometry>
        </mxCell>
        <mxCell id="ZDPEPP_IXGVOV3i8wKaN-23" value="&lt;font style=&quot;font-size: 15px&quot;&gt;상품목록&lt;/font&gt;" style="rounded=0;whiteSpace=wrap;html=1;" parent="1" vertex="1">
          <mxGeometry x="440" y="170" width="80" height="40" as="geometry" />
        </mxCell>
        <mxCell id="ZDPEPP_IXGVOV3i8wKaN-24" value="회원" style="text;html=1;strokeColor=none;fillColor=none;align=center;verticalAlign=middle;whiteSpace=wrap;rounded=0;" parent="1" vertex="1">
          <mxGeometry x="490" y="120" width="40" height="30" as="geometry" />
        </mxCell>
        <mxCell id="ZDPEPP_IXGVOV3i8wKaN-25" value="" style="endArrow=classic;html=1;entryX=0;entryY=0.5;entryDx=0;entryDy=0;exitX=1;exitY=0.5;exitDx=0;exitDy=0;" parent="1" source="ZDPEPP_IXGVOV3i8wKaN-18" target="ZDPEPP_IXGVOV3i8wKaN-26" edge="1">
          <mxGeometry width="50" height="50" relative="1" as="geometry">
            <mxPoint x="540" y="85" as="sourcePoint" />
            <mxPoint x="590" y="35" as="targetPoint" />
            <Array as="points" />
          </mxGeometry>
        </mxCell>
        <mxCell id="ZDPEPP_IXGVOV3i8wKaN-26" value="&lt;span style=&quot;font-size: 15px&quot;&gt;회원가입&lt;/span&gt;" style="rounded=0;whiteSpace=wrap;html=1;" parent="1" vertex="1">
          <mxGeometry x="610" y="55" width="80" height="40" as="geometry" />
        </mxCell>
        <mxCell id="ZDPEPP_IXGVOV3i8wKaN-27" value="비회원" style="text;html=1;strokeColor=none;fillColor=none;align=center;verticalAlign=middle;whiteSpace=wrap;rounded=0;" parent="1" vertex="1">
          <mxGeometry x="550" y="40" width="40" height="30" as="geometry" />
        </mxCell>
        <mxCell id="ZDPEPP_IXGVOV3i8wKaN-28" value="" style="endArrow=classic;html=1;exitX=0.5;exitY=1;exitDx=0;exitDy=0;entryX=0.5;entryY=0;entryDx=0;entryDy=0;" parent="1" source="ZDPEPP_IXGVOV3i8wKaN-23" target="ZDPEPP_IXGVOV3i8wKaN-30" edge="1">
          <mxGeometry width="50" height="50" relative="1" as="geometry">
            <mxPoint x="510" y="240" as="sourcePoint" />
            <mxPoint x="560" y="190" as="targetPoint" />
          </mxGeometry>
        </mxCell>
        <mxCell id="ZDPEPP_IXGVOV3i8wKaN-30" value="&lt;span style=&quot;font-size: 15px&quot;&gt;상품상세&lt;/span&gt;" style="rounded=0;whiteSpace=wrap;html=1;" parent="1" vertex="1">
          <mxGeometry x="440" y="270" width="80" height="40" as="geometry" />
        </mxCell>
        <mxCell id="ZDPEPP_IXGVOV3i8wKaN-31" value="상품 클릭" style="text;html=1;strokeColor=none;fillColor=none;align=center;verticalAlign=middle;whiteSpace=wrap;rounded=0;" parent="1" vertex="1">
          <mxGeometry x="490" y="230" width="80" height="30" as="geometry" />
        </mxCell>
        <mxCell id="ZDPEPP_IXGVOV3i8wKaN-32" value="&lt;span style=&quot;font-size: 15px&quot;&gt;구매&lt;/span&gt;" style="rounded=0;whiteSpace=wrap;html=1;" parent="1" vertex="1">
          <mxGeometry x="440" y="370" width="80" height="40" as="geometry" />
        </mxCell>
        <mxCell id="ZDPEPP_IXGVOV3i8wKaN-33" value="상품구매" style="text;html=1;strokeColor=none;fillColor=none;align=center;verticalAlign=middle;whiteSpace=wrap;rounded=0;" parent="1" vertex="1">
          <mxGeometry x="490" y="320" width="80" height="30" as="geometry" />
        </mxCell>
        <mxCell id="ZDPEPP_IXGVOV3i8wKaN-34" value="" style="endArrow=classic;html=1;exitX=0.5;exitY=1;exitDx=0;exitDy=0;entryX=0.5;entryY=0;entryDx=0;entryDy=0;" parent="1" edge="1">
          <mxGeometry width="50" height="50" relative="1" as="geometry">
            <mxPoint x="479.5" y="310" as="sourcePoint" />
            <mxPoint x="479.5" y="370" as="targetPoint" />
          </mxGeometry>
        </mxCell>
        <mxCell id="ZDPEPP_IXGVOV3i8wKaN-35" value="" style="endArrow=classic;html=1;exitX=0;exitY=0.5;exitDx=0;exitDy=0;entryX=1;entryY=1;entryDx=0;entryDy=0;" parent="1" source="ZDPEPP_IXGVOV3i8wKaN-32" target="ZDPEPP_IXGVOV3i8wKaN-12" edge="1">
          <mxGeometry width="50" height="50" relative="1" as="geometry">
            <mxPoint x="330" y="350" as="sourcePoint" />
            <mxPoint x="380" y="300" as="targetPoint" />
          </mxGeometry>
        </mxCell>
        <mxCell id="ZDPEPP_IXGVOV3i8wKaN-36" value="상품구매 확인" style="text;html=1;strokeColor=none;fillColor=none;align=center;verticalAlign=middle;whiteSpace=wrap;rounded=0;" parent="1" vertex="1">
          <mxGeometry x="290" y="275" width="80" height="30" as="geometry" />
        </mxCell>
        <mxCell id="ZDPEPP_IXGVOV3i8wKaN-37" value="" style="endArrow=classic;html=1;exitX=0.5;exitY=1;exitDx=0;exitDy=0;entryX=1;entryY=0.75;entryDx=0;entryDy=0;" parent="1" source="ZDPEPP_IXGVOV3i8wKaN-26" target="ZDPEPP_IXGVOV3i8wKaN-23" edge="1">
          <mxGeometry width="50" height="50" relative="1" as="geometry">
            <mxPoint x="670" y="200" as="sourcePoint" />
            <mxPoint x="550" y="200" as="targetPoint" />
            <Array as="points">
              <mxPoint x="650" y="200" />
            </Array>
          </mxGeometry>
        </mxCell>
        <mxCell id="ZDPEPP_IXGVOV3i8wKaN-38" value="관리자" style="shape=umlActor;verticalLabelPosition=bottom;verticalAlign=top;html=1;outlineConnect=0;" parent="1" vertex="1">
          <mxGeometry x="60" y="150" width="30" height="60" as="geometry" />
        </mxCell>
        <mxCell id="ZDPEPP_IXGVOV3i8wKaN-39" value="" style="endArrow=classic;html=1;exitX=0.25;exitY=1;exitDx=0;exitDy=0;entryX=0.5;entryY=0;entryDx=0;entryDy=0;" parent="1" source="ZDPEPP_IXGVOV3i8wKaN-12" target="ZDPEPP_IXGVOV3i8wKaN-40" edge="1">
          <mxGeometry width="50" height="50" relative="1" as="geometry">
            <mxPoint x="140" y="180" as="sourcePoint" />
            <mxPoint x="150" y="170" as="targetPoint" />
          </mxGeometry>
        </mxCell>
        <mxCell id="ZDPEPP_IXGVOV3i8wKaN-40" value="공지 게시판&lt;br&gt;작성" style="rounded=0;whiteSpace=wrap;html=1;" parent="1" vertex="1">
          <mxGeometry x="100" y="150" width="80" height="60" as="geometry" />
        </mxCell>
        <mxCell id="ZDPEPP_IXGVOV3i8wKaN-41" value="공지화면" style="html=1;" parent="1" vertex="1">
          <mxGeometry x="80" y="240" width="110" height="30" as="geometry" />
        </mxCell>
        <mxCell id="ZDPEPP_IXGVOV3i8wKaN-42" value="" style="endArrow=classic;html=1;exitX=0.425;exitY=0.983;exitDx=0;exitDy=0;exitPerimeter=0;entryX=0.5;entryY=0;entryDx=0;entryDy=0;" parent="1" source="ZDPEPP_IXGVOV3i8wKaN-40" target="ZDPEPP_IXGVOV3i8wKaN-41" edge="1">
          <mxGeometry width="50" height="50" relative="1" as="geometry">
            <mxPoint x="60" y="370" as="sourcePoint" />
            <mxPoint x="110" y="320" as="targetPoint" />
          </mxGeometry>
        </mxCell>
      </root>
    </mxGraphModel>
  </diagram>
</mxfile>
